<svg xmlns="http://www.w3.org/2000/svg" viewBox="0 0 120 120" fill="none">
  <!-- Logo for LIGHT backgrounds: dark brown tones -->
  <rect x="4" y="4" width="112" height="112" rx="12" stroke="#5A4630" stroke-width="1.5"/>
  <rect x="10" y="10" width="100" height="100" rx="8" stroke="#5A4630" stroke-width="0.5" opacity="0.3"/>
  <!-- L -->
  <path d="M28 32h5.5v48h16v5H28V32z" fill="#3A2A1A"/>
  <!-- B -->
  <path d="M56 32h13c3.5 0 6.2 1 8 2.8 1.8 1.8 2.7 4 2.7 6.7 0 2-.6 3.8-1.7 5.3-1.1 1.5-2.6 2.5-4.5 3.1v.2c2.3.5 4.1 1.6 5.4 3.3 1.3 1.7 2 3.8 2 6.2 0 3-1 5.5-3.1 7.4-2 1.9-4.8 2.9-8.3 2.9H56V32zm5.5 16h8c2 0 3.6-.5 4.8-1.6 1.2-1 1.8-2.5 1.8-4.2 0-1.7-.6-3-1.7-4-1.1-1-2.7-1.5-4.6-1.5h-8.3V48zm0 21.3h9c2.1 0 3.8-.6 5-1.7 1.3-1.2 1.9-2.7 1.9-4.6 0-1.9-.7-3.4-2-4.5-1.3-1.1-3.1-1.7-5.3-1.7h-8.6v12.5z" fill="#3A2A1A"/>
  <!-- C -->
  <path d="M92.5 72.5c-1.8 2.3-4 4.1-6.5 5.3-2.5 1.2-5.2 1.8-8 1.8-4.8 0-8.8-1.7-12-5-3.2-3.4-4.8-7.6-4.8-12.8 0-5.3 1.6-9.6 4.9-13 3.2-3.4 7.3-5 12.1-5 2.7 0 5.2.6 7.5 1.7 2.3 1.1 4.2 2.8 5.8 4.9l-4 3.5c-2.3-3.2-5.4-4.8-9.3-4.8-3.4 0-6.2 1.2-8.4 3.7-2.2 2.5-3.3 5.6-3.3 9.3 0 3.7 1.1 6.7 3.2 9.1 2.2 2.4 4.9 3.6 8.3 3.6 4 0 7.2-1.8 9.6-5.3l4 3z" fill="#3A2A1A"/>
  <!-- Decorative line -->
  <line x1="28" y1="88" x2="92" y2="88" stroke="#5A4630" stroke-width="0.75" opacity="0.4"/>
  <!-- Tagline -->
  <text x="60" y="98" text-anchor="middle" fill="#5A4630" font-family="serif" font-size="6.5" letter-spacing="3" opacity="0.7">LONDON</text>
  <text x="60" y="107" text-anchor="middle" fill="#5A4630" font-family="serif" font-size="5" letter-spacing="2.5" opacity="0.55">BESPOKE CLUB</text>
</svg>
