<svg xmlns="http://www.w3.org/2000/svg" viewBox="0 0 80 80" fill="none">
  <!-- Compact monogram for LIGHT backgrounds -->
  <rect x="3" y="3" width="74" height="74" rx="10" stroke="#5A4630" stroke-width="1.5"/>
  <!-- L -->
  <path d="M16 18h4.5v38h13v4.5H16V18z" fill="#3A2A1A"/>
  <!-- B -->
  <path d="M39 18h10.5c2.8 0 5 .8 6.5 2.3 1.5 1.5 2.2 3.3 2.2 5.5 0 1.6-.5 3.1-1.4 4.3-.9 1.2-2.1 2.1-3.7 2.6v.2c1.9.4 3.3 1.3 4.4 2.7 1.1 1.4 1.6 3.1 1.6 5 0 2.5-.8 4.5-2.5 6-1.7 1.6-3.9 2.3-6.7 2.3H39V18zm4.5 13h6.5c1.6 0 2.9-.4 3.9-1.3 1-.9 1.5-2 1.5-3.4 0-1.4-.5-2.5-1.4-3.3-.9-.8-2.2-1.2-3.7-1.2h-6.8V31zm0 17.3h7.3c1.7 0 3.1-.5 4-1.4 1-1 1.5-2.2 1.5-3.7 0-1.5-.5-2.8-1.6-3.7-1.1-.9-2.5-1.3-4.3-1.3h-6.9v10.1z" fill="#3A2A1A"/>
  <!-- C (compact) -->
  <path d="M69.5 55.5c-1.3 1.7-2.9 3-4.8 3.9-1.8.9-3.8 1.3-5.8 1.3-3.5 0-6.4-1.2-8.7-3.7-2.3-2.5-3.5-5.6-3.5-9.4 0-3.9 1.2-7 3.6-9.5 2.4-2.5 5.3-3.7 8.8-3.7 2 0 3.8.4 5.5 1.2 1.7.8 3.1 2 4.2 3.6l-3.2 2.7c-1.7-2.4-3.9-3.5-6.7-3.5-2.5 0-4.5.9-6.1 2.7-1.6 1.8-2.4 4.1-2.4 6.8 0 2.7.8 4.9 2.3 6.6 1.6 1.8 3.6 2.6 6 2.6 2.9 0 5.2-1.3 7-3.9l3 2.3z" fill="#3A2A1A"/>
</svg>
